<svg xmlns="http://www.w3.org/2000/svg" viewBox="0 0 4037.05 563.37"><defs><style>.cls-1{fill:#fff;}.cls-2{fill:#2879a1;}</style></defs><title>preciossMesa de trabajo 2</title><g id="Capa_1" data-name="Capa 1"><path class="cls-1" d="M284.52,565.5l30.28-2.18,195.61-45.11s47.92-10.8,59.16-43.92c10.65-32.83-5.32-68.47-5.32-68.47L424,82.82s-22.48-52.06-71-46.14c0,0-12-34.18-65.2-34.31C243,2.26,227.65,37.87,227.65,37.87s-42.3-7.39-63.59,37.56S16.53,392.88,16.53,392.88-13.12,447.23,7,481.54s51.92,36.09,51.92,36.09Z"/><path class="cls-2" d="M552.27,419.2c-7.88-18.31-16.22-36.49-24.35-54.73q-26.83-60.32-53.7-120.64-24.12-54.2-48.2-108.4c-7.45-16.86-15.19-33.58-22.25-50.65a51.17,51.17,0,0,0-54.87-31c-4.22.6-3.55.82-5.29-2.87-11.18-23.39-33.75-36.77-61.65-32.8-20.2,2.87-34.71,14.52-43.55,33-.89,1.85-1.6,2.59-4,2.41-20.83-1.38-37.34,6.35-49,23.89-2.59,3.9-4,8.31-6,12.46q-13.1,27.69-26.16,55.33-16.77,35.67-33.61,71.31-12.88,27.31-25.8,54.59-18.47,39.24-36.95,78.51-15,31.84-30.13,63.68c-3.12,6.57-5.89,13.24-7,20.52-.14,1,.14,2.38-1.24,2.91v11.75a6.8,6.8,0,0,1,.75,3.62c.21,7.06,2.91,13.42,6.32,19.34C34.84,487.53,48.9,496.9,67,500.8c40.18,8.62,80.25,17.78,120.47,26.27,32.65,6.89,64.92,15.62,98,20.44h10.93c.18-.21.36-.53.57-.57,9.69-1.28,19.13-4,28.68-6,4.93-1.06,4.93-1.14,4.93-6.07V248.23c0-.85-.07-1.67,0-2.52a3.56,3.56,0,0,0-1.7-3.51,24,24,0,0,1-5.64-5.57,23.74,23.74,0,0,1,35.56-31.13c8.73,8.09,10.15,21.94,2.88,31.23a11.35,11.35,0,0,0-2.45,7.6q.05,108.88,0,217.79c0,.85,0,1.67,0,2.52.07,2.8.11,2.87,2.73,2.38q23.21-4.42,46.46-9c3.19-.64,3.19-.75,2.38-4.19q-3.62-15.71-7.24-31.45-4.69-20.39-9.41-40.78c-.46-2.06-1.21-3.58-3.3-4.44s-3.55-2.63-5.11-4.22a23,23,0,0,1-4.54-25.66c4.29-9.41,12.25-14.52,22.25-14.34,9.12.14,16.33,4.76,20.59,13,4.12,8,3.73,15.94-1.1,23.53a6.78,6.78,0,0,0-1,5.82c3.44,14.37,6.71,28.82,10,43.23,2.34,10.22,4.76,20.41,7.06,30.6.43,2,1,2.95,3.37,2.48,14.23-2.87,28.47-5.57,42.73-8.38,2.84-.57,2.91-.78,1.67-3.58q-9.16-21.14-18.39-42.27Q440.29,333,412.17,268.67q-29.87-68.36-59.67-136.76a8.37,8.37,0,0,0-5-5,23.34,23.34,0,0,1-14.2-28c3.09-11.36,12.88-18.31,23.53-17.82,17.82.85,27.86,18.67,21.19,33.26a5.78,5.78,0,0,0,.11,5.18c5.54,12.53,11,25.09,16.47,37.62q27.1,62,54.23,124.05Q476,343.48,503.11,405.75c5.29,12.14,10.68,24.28,15.9,36.49,3.8,8.91-1,17.89-10.4,19.95-1.92.43-3.87.64-5.75,1l-87.31,18.21q-26.25,5.43-52.5,10.9c-3.8.78-3.83.82-3.83,4.51q-.05,16.56,0,33.15c0,1-.35,2.2.57,3a8.74,8.74,0,0,0,3.37-.53l57.22-12.81c30.77-6.92,61.62-13.63,92.32-20.83C547.94,490.51,566.71,452.74,552.27,419.2Zm-244-327.78a8.14,8.14,0,0,0-2.52,6.25c.14,13.7-.21,27.4.18,41.1.75,25.59.25,51.18.43,76.74.18,23.64-.07,47.28.43,70.92.57,26.83.25,53.7.46,80.54.07,10.61.18,21.26.25,31.87q.27,46.37.57,92.71c0,4.54-1.21,8.52-4.47,11.78a13.28,13.28,0,0,1-12.67,3.87c-23.32-5-46.82-9.19-70.24-13.88-24.35-4.86-48.73-9.48-73.12-14.2S98.73,469.71,74.35,465c-2.59-.5-5.29-.35-7.74-1.7a14.75,14.75,0,0,1-6.32-19.13c4.61-9.83,9-19.84,13.49-29.78Q91,376.2,108.31,338q24.44-54,48.84-108.11,21-46.37,41.92-92.82c2.63-5.86,5.25-11.75,8-17.57a6.49,6.49,0,0,0,.14-5.89c-6-14.45,3.83-31.94,22-32.44,10.36-.32,18.63,6.18,22.15,15.08a23.64,23.64,0,0,1-5.93,26.12,20.26,20.26,0,0,1-8.2,4.9c-2.31.64-3.37,2.06-4.29,4.08q-12.51,28-25.13,55.8-19,42-38,84-29.18,64.58-58.32,129.16c-5.5,12.21-11.07,24.42-16.58,36.63-.43.89-.82,1.81-1.17,2.7-.89,2.41-.92,2.52,1.56,3,5.61,1.17,11.22,2.24,16.82,3.3q34.18,6.5,68.29,12.88,38.87,7.35,77.73,14.77c6.32,1.21,12.64,2.27,18.92,3.55,1.74.36,2.34-.11,2.31-1.77,0-6-.07-12,0-18,0-2.24-1.42-2.41-2.95-2.77q-11-2.45-22-4.93l-99.7-22.36c-1.1-.21-2.2-.39-3.3-.57-10.12-1.6-15.58-10.9-11.5-20.27,5.22-12.07,10.79-24,16.26-35.92l36.95-81.25q11.29-24.81,22.57-49.58c1.1-2.45,1.81-4.58.6-7.52-4.79-11.68,1.1-24.81,13.1-30.17,11.07-4.93,24.74.18,30.28,11.36,6.32,12.67.64,27.44-12.92,32.76a8.44,8.44,0,0,0-5,5q-19.27,42.59-38.62,85.11Q189,367.15,174.93,398c-.25.53-.46,1-.71,1.53-.85,1.6-.71,2.59,1.35,2.87s4.12.85,6.18,1.28L275,422.22c1.06.21,2.2.36,3.51.53a14,14,0,0,0,.35-4.9q0-26,0-52c-.11-25.59.14-51.18-.43-76.77s-.21-50.9-.39-76.31c-.18-24.92,0-49.8-.46-74.68-.28-13.56-.25-27.12-.32-40.68a6.19,6.19,0,0,0-2.45-5,23.77,23.77,0,0,1-7-12.6c-2.59-11.18,4.61-23.43,15.83-27.19A23.82,23.82,0,0,1,311,62.42,23.36,23.36,0,0,1,308.25,91.42Z"/><path class="cls-1" d="M4037.05,238.32c-1.35-1.26-.9-3-1-4.5-.22-2.66-.27-5.31-.67-7.92-3.87-26-14.32-49.21-29.45-70.46-19.45-27.24-45.29-45-78-52.59a189,189,0,0,0-71.27-2.84c-39.26,5.81-70.46,24.76-92.75,57.81-16.07,23.91-24.22,50.7-28,78.93a315.7,315.7,0,0,0-1.17,73.75c2.66,27.24,9.23,53.35,22.65,77.49,18.33,33,44.66,56.05,82,65.06a202.14,202.14,0,0,0,78.66,3.24c21.52-3.29,41.42-10.94,58.71-24.49,13.06-10.18,23.23-22.83,32.06-36.69,9.59-15,17.65-30.75,20.76-48.54a467.67,467.67,0,0,0,6.57-62.85c0-1.67-.77-3.56,1-4.91Zm-92.66,71.14c-1.44,12.16-3.56,24.18-8.6,35.48-9.14,20.53-25.08,31.7-47.5,32.73-23.05,1-40.34-8.82-51.6-29-5.76-10.36-8.69-21.7-10.26-33.32-3.6-26.11-3.65-52.27.95-78.3,2.52-14.09,7.29-27.24,16.57-38.63,21.16-25.93,63-23.91,82.75.45,7.56,9.27,12.11,19.86,14.95,31.34,3.83,15.26,4.46,30.8,4.59,46.37A287.4,287.4,0,0,1,3944.39,309.46Z"/><path class="cls-1" d="M2274.63,262.44c-2.54,1.28-3.72,3.48-5,5.49-6.71,10.23-13.34,20.52-20.09,30.72-7.36,11.11-15.3,21.76-25,31a67.36,67.36,0,0,1-14.92,11q-18,9.52-35.37-1c-7.86-4.76-14.15-11.21-19.82-18.32-9.88-12.37-17.73-26.09-26-39.53-2.69-4.38-5.14-8.91-7.84-13.28-1.18-1.91-2.13-4.11-4.78-5.4-1.29,2-1.34,4.22-1.36,6.42-.22,25.9-.26,51.79.31,77.69.43,19.51.46,39,.69,58.54.15,12.42.36,24.83.49,37.25,0,3.93,0,4-4.1,4q-38.59,0-77.18,0c-4.29,0-4.3-.06-4.35-4.32,0-1.6,0-3.19,0-4.79q-.64-104.05-1.29-208.11-.39-59.61-.89-119.22c0-.89,0-1.77,0-2.66.06-3.8.06-3.83,3.66-3.89,2.66,0,5.32,0,8,0,21.29,0,42.58.07,63.87-.07,3.24,0,5,1,6.69,3.81q32.59,54.57,65.38,109a49.78,49.78,0,0,0,7.93,10.62c7,6.67,13.85,7,21.36,1.08a38.14,38.14,0,0,0,9.26-10.85c21.18-36.28,42.47-72.51,63.55-108.85,2-3.49,4.06-4.91,8.22-4.87,23.6.24,47.2.11,70.79.12,5,0,4.59-.34,4.59,4.58q0,169.53,0,339.07c0,.89,0,1.78,0,2.66.09,1.61-.7,2.22-2.23,2.15-1.06,0-2.13,0-3.19,0h-75.05c-1.06,0-2.13,0-3.19,0-1.58,0-2.22-.76-2.19-2.29s0-3.19,0-4.79q.1-87.83.17-175.65C2275.7,267.41,2276.29,264.89,2274.63,262.44Z"/><path class="cls-1" d="M997.53,294.42v-5.77q0-89.15,0-178.3c0-6.31,0-6.31,6-6.35l75-.45h2.13c5.93-.06,5.17,0,5.17,5.17q0,116,0,232.05,0,52.42,0,104.85c0,1.06,0,2.13,0,3.19-.08,3.95-.08,4-4.15,4-31-.08-62.09-.25-93.13-.22-3,0-4.3-1.32-5.61-3.7q-36.85-66.52-73.83-133-13.69-24.64-27.38-49.27c-.56-1-.89-2.24-2.34-3-.69,2-.37,3.94-.37,5.8q0,88.35,0,176.7c0,7,.9,6.29-6.16,6.3q-35.13,0-70.25,0c-1.24,0-2.49-.06-3.72,0-1.73.09-2.68-.49-2.54-2.4.09-1.24,0-2.48,0-3.72q0-168.18,0-336.37c0-6.76-1-6,5.84-6,27.85,0,55.71,0,83.56-.08,3.56,0,5.62.88,7.47,4.22q50,90.56,100.2,181c1,1.84,2.1,3.65,3.16,5.47Z"/><path class="cls-1" d="M1999,447.32c-11.84-28.27-24-56.41-35.52-84.78a177.08,177.08,0,0,0-30.75-50.65q-1.35-1.62-2.57-3.38c-4.32-6.39-3.65-12.34,2-17.6a38.07,38.07,0,0,1,9.45-5.85c14.41-7,25-17.78,32.33-31.92,7.83-15.13,10.94-31.43,11.39-48.22.54-20.85-2.39-41-12.56-59.61-10.63-19.41-26.25-32.28-48.31-36.56a220.43,220.43,0,0,0-41.74-4.46c-58.71-.23-117.42-.18-176.13-.23-5.76,0-5.81,0-5.81,6V446.42c0,1.22.09,2.48,0,3.69-.14,1.94.86,2.52,2.57,2.39.9,0,1.8,0,2.66,0h91c1.08,0,2.16,0,3.2,0,1.53.09,2.34-.45,2.3-2.12-.09-1,0-2.12,0-3.2q-.14-64.63-.27-129.31c0-1.4,0-2.84,0-4.23s.41-2.39,2.07-2.34c4.41.18,9.09,0,12.61,3.2,7.56,6.89,15.44,13.55,20.53,22.78,2.79,5.13,5.31,10.4,7.61,15.8,13.33,31.47,26.74,62.94,39.89,94.5,1.67,4,3.65,5,7.79,5,34-.18,68.12-.13,102.16-.13h5.49C2000.62,450.11,1999.59,448.76,1999,447.32ZM1886.26,236.75a28.8,28.8,0,0,1-18.5,14.86c-12.38,3.33-24.76,6-37.73,5.31-8.28-.41-16.66-.14-25,0-2.79,0-3.6-.95-3.56-3.69.14-12.79,0-25.53,0-38.32V178.21c0-2-.27-3.87,2.84-3.78,16.66.36,33.32-.59,50,.59a69.83,69.83,0,0,1,12.56,2.16c12.38,3.24,19.81,11.26,22.87,23.46C1892.88,213.06,1892.52,225.22,1886.26,236.75Z"/><path class="cls-1" d="M3582.18,447.59c-12.38-29.58-24.94-59.07-37.19-88.7a169.79,169.79,0,0,0-28-45.56,52.34,52.34,0,0,1-3.92-5c-4.23-6.44-3.42-12.34,2.3-17.56a32.22,32.22,0,0,1,8.06-5.13c19.32-9,31.61-24.18,38.49-43.9,7-20,8-40.57,5.13-61.41a99.41,99.41,0,0,0-11.35-35.21c-10.45-18.73-25.44-31.47-46.91-35.93a215.58,215.58,0,0,0-42.19-4.77c-58.94-.32-117.83-.27-176.72-.32-6.66,0-5.81-1-5.81,6V296.36q0,75,0,150.11c0,7-.81,6,5.81,6,18.6,0,37.23,0,55.87,0,12.07,0,24.13,0,36.2,0,2.57,0,4.1-.45,3.65-3.47a17.33,17.33,0,0,1,0-2.66q-.07-64.7-.18-129.35v-3.69c0-1.53.54-2.34,2.16-2.25,4.77.32,9.5.54,13.46,4,11.44,9.86,20.4,21.39,26.25,35.57,13.37,32.37,27.37,64.56,40.88,96.89,1.53,3.65,3.2,5.09,7.25,5,34.4-.18,68.84-.09,103.24-.09,1.58,0,3.2.36,4.77-.45C3583.84,450.34,3582.76,449,3582.18,447.59Zm-113.1-210.08a28.87,28.87,0,0,1-18.33,14.27c-12.52,3.33-25.12,5.94-38.23,5.27-8-.45-15.94,0-23.91-.09-3.74,0-3.83-.14-3.83-3.92q-.07-18.84,0-37.73V178.66c0-4.14.09-4.23,4-4.23,14.14,0,28.32,0,42.5.09a76.77,76.77,0,0,1,19.4,2.75c11.93,3.2,19.14,11,22.24,22.69C3476.28,212.93,3475.83,225.58,3469.08,237.51Z"/><path class="cls-1" d="M3252,224.72c-4-24.94-14-47.41-28.46-68-18.82-26.92-43.85-45-75.77-53.13a187,187,0,0,0-81.76-2.25c-26.38,5-49.48,16.75-68.57,36-19.32,19.54-31.43,43.13-38.68,69.34-6.48,23.37-9,47.32-8.73,73.25a263.61,263.61,0,0,0,3.33,45.43c3.78,24.4,11.35,47.46,24.27,68.66,18.28,30,43.63,50.52,78.07,58.89a201.48,201.48,0,0,0,79.2,3.38c20.62-3.2,39.71-10.4,56.55-23,14.72-11,26-25,35.57-40.57,7.38-12.16,14.23-24.54,17.51-38.54a256.64,256.64,0,0,0,4.68-26.7c2.21-17.6,3.42-35.25,4.73-52.95A214.78,214.78,0,0,0,3252,224.72Zm-89.82,74.11c-1,15-3.06,29.94-8.73,44.08-6.3,15.85-17.06,27.42-33.68,32.24-27.92,8.15-56.05-2.12-69-32.19-5.63-13-7.88-26.79-9-40.75-.68-7.79-.81-15.58-1.13-22.24.45-19,1.35-36.87,6.26-54.25,3.11-10.9,7.83-20.89,15.67-29.22,22.65-24.22,62-22.15,82.62,4.37,8.15,10.49,12.25,22.65,14.68,35.48C3163.77,257.05,3163.64,277.9,3162.19,298.83Z"/><path class="cls-1" d="M1673.3,225c-4.05-25.3-14.18-48.09-29-69-18.91-26.65-43.85-44.53-75.64-52.54a189.44,189.44,0,0,0-76-3.15c-25.44,4-48.31,13.78-67.72,31-20.26,18-33.72,40.39-42.19,66-8.73,26.38-11.71,53.53-11.66,84.87a268.24,268.24,0,0,0,3.29,42.41c3.74,24.81,11.39,48.22,24.54,69.7,18.05,29.63,43.13,50,77.13,58.44a201.67,201.67,0,0,0,80.23,3.56c20.62-3.2,39.71-10.45,56.51-23.1,14.72-11,26-25,35.48-40.61,7.29-12,14-24.22,17.33-38a256.64,256.64,0,0,0,4.68-26.7c2.25-17.56,3.47-35.25,4.77-52.95A217.26,217.26,0,0,0,1673.3,225Zm-89.91,74c-.86,13-2.7,25.71-6.57,38.14-4.59,14.54-12.56,26.56-26.2,34.08-29,15.89-64.47,3.65-78.12-26.92-6-13.42-8.37-27.73-9.59-42.23-.68-7.79-.77-15.58-1.08-22.42.5-20.31,1.44-39.53,7.56-58.13a65.62,65.62,0,0,1,19-29.58c20.31-17.92,58.71-17.15,78.43,9.5,7.65,10.36,11.75,22.15,14.14,34.58C1585,256.87,1584.83,277.9,1583.39,299Z"/><path class="cls-1" d="M2708.08,446.92q-33.29-134.67-66.64-269.33a119.72,119.72,0,0,0-19.18-41.2c-25.93-36.15-68.75-47.91-108-33.09-33.41,12.61-54.16,37.19-63.53,71.36-9.59,35-18.6,70.24-28.23,105.22-15.4,55.87-31.07,111.61-46.65,167.4-.45,1.62-1.31,3.2-.63,5.22h6q46.33,0,92.57,0c8,0,6.12,1.08,7.47-6.26,4.14-22.65,8-45.34,12-68,.67-3.92.72-4,4.68-4q45.72-.07,91.49,0c4.23,0,4.23,0,5,4.28,1.08,6.12,2.12,12.25,3.2,18.32q4.59,25.66,9.14,51.28c.77,4.32.86,4.28,5.31,4.32h92.07c1.58,0,3.2.32,4.91-.54C2708.76,450.29,2708.49,448.58,2708.08,446.92Zm-193.6-141.74c.23-6.35,1.49-12.43,2.3-18.5,3.83-27.51,7.65-55,11.66-82.53a119.23,119.23,0,0,1,6.48-24.58,33.09,33.09,0,0,1,4.68-8.91c3.51-4.41,6.8-4.5,10.54-.36a26.41,26.41,0,0,1,4.46,7.2c5.67,12.7,8.46,26.2,11.17,39.76,4.32,22.11,6.21,44.53,8,67a165.34,165.34,0,0,0,2.52,21Z"/><path class="cls-1" d="M1215.42,310.24c-1.14,2.16-.66,4.14-.66,6q0,65.18,0,130.36c0,6.65,1,5.84-6,5.85q-38.31.05-76.62,0c-1.06,0-2.13-.06-3.19,0-1.73.1-2.69-.49-2.54-2.39.08-1.06,0-2.13,0-3.19q0-141.27,0-282.54a71.05,71.05,0,0,1,6.46-29.37c7.06-15.71,19.55-24.74,36-28.67a97.13,97.13,0,0,1,22.68-2.3q73.7,0,147.39,0c5,0,4.56-.25,4.56,4.62q0,32.72,0,65.45c0,5.12.59,4.81-4.91,4.81q-59.06,0-118.13,0c-6.37,0-5.75-.83-5.76,5.58q0,31.39,0,62.79c0,5.41-.36,4.87,4.83,4.87h97.91c1.06,0,2.13,0,3.19,0,3.73.08,3.8.08,3.82,3.76,0,11.35,0,22.7,0,34.05,0,5.32,0,10.64,0,16,0,4.2-.06,4.2-4.45,4.27-1.24,0-2.48,0-3.72,0H1215.42Z"/><path class="cls-1" d="M2862.27,321q0,62,0,124a36.5,36.5,0,0,0,0,3.72c.29,2.85-1,3.54-3.7,3.53q-35.38-.15-70.77,0c-2.56,0-3.6-.78-3.37-3.33.12-1.41,0-2.84,0-4.25q0-124,0-248c0-6.41,0-6.41-6.47-6.41h-76.62c-1.24,0-2.49-.06-3.72,0-1.85.1-2.54-.83-2.49-2.56,0-.89,0-1.77,0-2.66q0-38,0-76.09c0-.71,0-1.42,0-2.13-.12-1.92.47-3.05,2.68-2.82a35.83,35.83,0,0,0,3.72,0q121.85,0,243.7,0c7.35,0,6.48-1.05,6.49,6.48q.06,36.71,0,73.43c0,1.24,0,2.48,0,3.72,0,1.69-.58,2.7-2.47,2.59-1.24-.07-2.48,0-3.72,0h-77.15l-4.26,0c-1.3,0-1.89.64-1.87,1.94s0,2.84,0,4.26Q2862.27,258.78,2862.27,321Z"/><path class="cls-1" d="M3705.4,278.82q0,83,0,166a36.14,36.14,0,0,0,0,4.25c.35,2.9-1,3.49-3.66,3.49-33-.07-66,0-99-.06-3.83,0-3.84-.08-3.94-3.72,0-1.06,0-2.13,0-3.19q0-167.33,0-334.66c0-7.93-1-6.86,6.62-6.87q46.82-.06,93.64,0c1.24,0,2.49.06,3.72,0,1.74-.1,2.65.52,2.54,2.41-.09,1.59,0,3.19,0,4.79Q3705.4,195,3705.4,278.82Z"/><path class="cls-1" d="M732.54,104.43c.87,1.86.48,3.84.48,5.76q0,168.12,0,336.25c0,.18,0,.35,0,.53,0,6.28.28,5.51-5.35,5.52q-26.6,0-53.2,0c-8.51,0-17,0-25.54,0-3.73,0-3.73-.08-3.81-3.74,0-1.06,0-2.13,0-3.19q0-167.33,0-334.65c0-6.85,0-6.85,6.58-6.85q37.77,0,75.55,0C729,104.07,730.81,103.74,732.54,104.43Z"/></g></svg>